<?xml version="1.0" standalone="no"?>
<!DOCTYPE svg PUBLIC "-//W3C//DTD SVG 20010904//EN"
 "http://www.w3.org/TR/2001/REC-SVG-20010904/DTD/svg10.dtd">
<svg version="1.0" xmlns="http://www.w3.org/2000/svg"
 width="1024.000000pt" height="1024.000000pt" viewBox="0 0 1024.000000 1024.000000"
 preserveAspectRatio="xMidYMid meet">
<metadata>
Created by potrace 1.14, written by Peter Selinger 2001-2017
</metadata>
<g transform="translate(0.000000,1024.000000) scale(0.100000,-0.100000)"
fill="#000000" stroke="none">
<path d="M4977 9874 c-1 -1 -54 -5 -117 -8 -63 -4 -128 -9 -145 -11 -16 -2
-57 -6 -90 -10 -33 -3 -67 -7 -75 -10 -8 -2 -35 -6 -60 -9 -87 -10 -346 -65
-515 -111 -115 -30 -411 -134 -545 -190 -267 -112 -569 -272 -785 -413 -102
-67 -284 -195 -320 -224 -11 -9 -60 -49 -110 -89 -290 -234 -571 -524 -791
-814 -98 -129 -210 -297 -277 -415 -11 -19 -33 -57 -49 -85 -76 -133 -195
-395 -256 -565 -51 -140 -111 -359 -136 -490 -3 -14 -7 -34 -9 -45 -7 -34 -16
-88 -23 -140 -3 -27 -8 -59 -10 -69 -25 -134 -25 -584 0 -726 3 -14 7 -43 11
-64 3 -21 7 -48 10 -60 3 -12 7 -33 9 -48 8 -49 56 -231 88 -333 18 -55 33
-102 33 -105 2 -6 -1 1 72 -185 106 -270 350 -738 503 -965 9 -14 63 -95 120
-180 95 -143 226 -328 240 -340 3 -3 17 -21 30 -40 36 -52 192 -251 282 -360
44 -52 86 -104 95 -115 19 -23 202 -232 253 -289 172 -191 565 -586 735 -741
55 -49 109 -99 120 -110 12 -11 50 -45 85 -75 35 -30 68 -59 74 -65 39 -35
147 -125 246 -204 63 -51 123 -99 132 -106 9 -8 68 -52 131 -98 450 -333 830
-541 1087 -593 241 -48 517 50 1035 369 205 126 632 456 900 695 314 280 719
688 954 961 25 30 57 66 71 81 28 32 21 23 174 208 113 138 326 415 405 527
163 233 357 533 431 669 15 28 44 80 65 116 104 181 289 590 364 805 25 73 79
250 86 279 2 12 6 30 9 41 21 87 47 211 52 256 3 30 8 56 9 59 19 32 26 481
11 635 -9 92 -12 118 -31 238 -5 27 -20 108 -39 202 -19 92 -79 294 -122 410
-20 55 -43 117 -50 137 -60 165 -213 456 -353 673 -76 118 -267 376 -326 441
-5 6 -39 44 -75 85 -123 139 -358 369 -480 469 -30 25 -57 47 -60 50 -37 41
-361 274 -510 367 -281 177 -663 363 -935 457 -44 16 -89 32 -100 37 -49 21
-380 114 -475 133 -14 3 -61 12 -105 21 -44 9 -89 18 -100 20 -117 19 -144 23
-297 40 -120 13 -540 28 -551 19z"/>
</g>
</svg>
